<svg xmlns="http://www.w3.org/2000/svg" width="24" height="24" fill="none" stroke="currentColor" stroke-linecap="round" stroke-linejoin="round" stroke-width="2" class="icon icon-tabler icon-tabler-brand-discord-filled">
    <path stroke="none" d="M0 0h24v24H0z"/>
    <path fill="currentColor" stroke="none" d="m15 3 5 2c2 5 3 10 2 12s-3 4-5 4l-2-2a22 22 0 0 0 2-1 1 1 0 1 0 0-1H7a1 1 0 0 0 0 1l2 1-2 2c-2 0-4-2-5-4s0-7 2-12l5-2a1 1 0 0 1 1 0v1l1 1a13 13 0 0 1 2 0l1-1a1 1 0 0 1 1-1zm-6 7a2 2 0 0 0-2 2 2 2 0 1 0 2-2zm6 0a2 2 0 0 0-2 2 2 2 0 1 0 2-2z"/>
</svg>
