<?xml version="1.0" encoding="utf-8"?>
<svg xmlns="http://www.w3.org/2000/svg">
  <symbol id="discord" viewBox="0 0 24 24">
    <path stroke="none" fill="transparent" d="M0 0h24v24H0z"/>
    <path fill="#fff" stroke="none" d="m15 3 5 2c2 5 3 10 2 12l-4 4-3-2a22 22 0 0 0 2-1 1 1 0 1 0 0-1H7a1 1 0 0 0 0 1l2 1-2 2c-2 0-4-2-5-4s0-7 2-12l5-2a1 1 0 0 1 1 0v1l1 1a13 13 0 0 1 2 0l1-1a1 1 0 0 1 1-1zm-6 7a2 2 0 0 0-2 2 2 2 0 1 0 2-2zm6 0a2 2 0 0 0-2 2 2 2 0 1 0 2-2z"/>
  </symbol>
  <symbol id="friends" viewBox="0 0 24 24">
    <path fill="currentColor" d="M16 17v2H2v-2s0-4 7-4 7 4 7 4m-3-9a4 4 0 1 0-4 3 4 4 0 0 0 4-3m3 5a5 5 0 0 1 2 4v2h4v-2s0-4-6-4m-1-9a3 3 0 0 0-2 1 5 5 0 0 1 0 5 3 3 0 0 0 2 1 4 4 0 0 0 0-7Z"/>
  </symbol>
  <symbol id="headphones" viewBox="0 0 24 24">
    <path fill="#939aa3" d="M4 12h3a2 2 0 0 1 2 2v5a2 2 0 0 1-2 2H4a2 2 0 0 1-2-2v-7a10 10 0 1 1 20 0v7a2 2 0 0 1-2 2h-3a2 2 0 0 1-2-2v-5a2 2 0 0 1 2-2h3a8 8 0 1 0-16 0Z" class="messages-footer-icons-svg"/>
  </symbol>
  <symbol id="mic" viewBox="0 0 24 24">
    <path fill="#939aa3" d="m12 14-2-1-1-2V5l1-2 2-1 2 1 1 2v6l-1 2-2 1Zm-1 7v-3q-3 0-4-2t-2-5h2l1 4q1 2 4 1l4-1q2-1 1-4h2q0 3-2 5t-4 2v3h-2Z" class="messages-footer-icons-svg"/>
</symbol>
<symbol id="plus" viewBox="0 0 24 24">
  <path fill="none" stroke="none" d="M0 0h24v24H0z"/>
  <path d="M12 5v14m-7-7h14"/>
</symbol>
<symbol id="safari" viewBox="0 0 24 24">
  <path fill="transparent" stroke="none" d="M0 0h24v24H0z"/>
  <path fill="transparent" d="m8 16 2-6 6-2-2 6-6 2"/>
  <path fill="transparent" d="M3 12a9 9 0 1 0 18 0 9 9 0 1 0-18 0"/>
</symbol>
<symbol id="settings" viewBox="0 0 24 24">
  <path fill="none" stroke="none" d="M0 0h24v24H0z"/>
  <path fill="none" stroke="#939aa3" stroke-width="2" d="M10 4h4a2 2 0 0 0 2 1c2-1 4 1 3 3a2 2 0 0 0 1 2v4a2 2 0 0 0-1 2c1 2-1 4-3 3a2 2 0 0 0-2 1h-4a2 2 0 0 0-2-1c-2 1-4-1-3-3a2 2 0 0 0-1-2v-4a2 2 0 0 0 1-2C4 6 6 4 8 5c1 1 2 0 2-1z"/>
  <path fill="none" stroke="#939aa3" stroke-width="2" d="M9 12a3 3 0 1 0 6 0 3 3 0 0 0-6 0"/>
</symbol>
</svg>
